<svg xmlns="http://www.w3.org/2000/svg" viewBox="0 0 1340 880" width="1340" height="880" style="background-color: #FFFFFF; font-family: -apple-system, BlinkMacSystemFont, 'Segoe UI', Roboto, Helvetica, Arial, sans-serif;">
  <defs>
    <filter id="shadow" x="-5%" y="-5%" width="110%" height="115%" filterUnits="userSpaceOnUse">
      <feGaussianBlur in="SourceAlpha" stdDeviation="3" />
      <feOffset dx="0" dy="2" />
      <feComponentTransfer><feFuncA type="linear" slope="0.08" /></feComponentTransfer>
      <feMerge><feMergeNode /><feMergeNode in="SourceGraphic" /></feMerge>
    </filter>
    <filter id="card-shadow" x="-5%" y="-5%" width="110%" height="115%" filterUnits="userSpaceOnUse">
      <feGaussianBlur in="SourceAlpha" stdDeviation="2" />
      <feOffset dx="0" dy="1.5" />
      <feComponentTransfer><feFuncA type="linear" slope="0.06" /></feComponentTransfer>
      <feMerge><feMergeNode /><feMergeNode in="SourceGraphic" /></feMerge>
    </filter>
    <marker id="arrow" viewBox="0 0 10 10" refX="8" refY="5" markerWidth="6" markerHeight="6" orient="auto-start-reverse">
      <path d="M 0 1.5 L 8 5 L 0 8.5 z" fill="#475569" />
    </marker>
    <marker id="arrow-blue" viewBox="0 0 10 10" refX="8" refY="5" markerWidth="6" markerHeight="6" orient="auto-start-reverse">
      <path d="M 0 1.5 L 8 5 L 0 8.5 z" fill="#0284C7" />
    </marker>
    <marker id="arrow-emerald" viewBox="0 0 10 10" refX="8" refY="5" markerWidth="6" markerHeight="6" orient="auto-start-reverse">
      <path d="M 0 1.5 L 8 5 L 0 8.5 z" fill="#059669" />
    </marker>
    <marker id="arrow-purple" viewBox="0 0 10 10" refX="8" refY="5" markerWidth="6" markerHeight="6" orient="auto-start-reverse">
      <path d="M 0 1.5 L 8 5 L 0 8.5 z" fill="#7C3AED" />
    </marker>
    <marker id="arrow-amber" viewBox="0 0 10 10" refX="8" refY="5" markerWidth="6" markerHeight="6" orient="auto-start-reverse">
      <path d="M 0 1.5 L 8 5 L 0 8.5 z" fill="#D97706" />
    </marker>
  </defs>
  <rect width="1340" height="880" fill="#F8FAFC" />
  <rect x="30" y="20" width="1280" height="54" rx="8" fill="#0F172A" filter="url(#shadow)" />
  <text x="50" y="52" fill="#F8FAFC" font-size="16" font-weight="700" letter-spacing="0.5">FORGEGUARD: SYSTEM ARCHITECTURE &amp; FORENSIC DATAFLOW</text>
  <text x="1285" y="52" fill="#94A3B8" font-size="12" font-weight="500" text-anchor="end">NDMC BSCS THESIS &#8226; A COMPARATIVE EVALUATION OF CNN ARCHITECTURES</text>
  <!-- 1. PRESENTATION LAYER -->
  <g transform="translate(30, 92)">
    <rect width="360" height="424" rx="10" fill="#F0F9FF" stroke="#BAE6FD" stroke-width="1.5" filter="url(#shadow)" />
    <rect x="14" y="14" width="332" height="32" rx="6" fill="#E0F2FE" stroke="#7DD3FC" stroke-width="1" />
    <text x="24" y="35" fill="#0369A1" font-size="12" font-weight="700">1. PRESENTATION LAYER (Streamlit Web UI)</text>
    <rect x="24" y="58" width="312" height="66" rx="8" fill="#FFFFFF" stroke="#CBD5E1" stroke-width="1" filter="url(#card-shadow)" />
    <circle cx="56" cy="91" r="18" fill="#E0F2FE" stroke="#0284C7" stroke-width="1.5" />
    <circle cx="56" cy="85" r="6" fill="#0284C7" />
    <path d="M 44 99 C 44 94 68 94 68 99" stroke="#0284C7" stroke-width="2" fill="none" />
    <text x="86" y="85" fill="#0F172A" font-size="13" font-weight="700">User / Online Merchant</text>
    <text x="86" y="103" fill="#64748B" font-size="11">Uploads GCash digital payment receipt</text>
    <rect x="24" y="144" width="312" height="74" rx="8" fill="#FFFFFF" stroke="#CBD5E1" stroke-width="1" filter="url(#card-shadow)" />
    <rect x="36" y="156" width="36" height="36" rx="6" fill="#0284C7" />
    <path d="M 44 174 L 54 164 L 64 174 M 44 182 L 64 182" stroke="#FFFFFF" stroke-width="1.8" fill="none" stroke-linecap="round" />
    <text x="84" y="172" fill="#0F172A" font-size="13" font-weight="700">ForgeGuard Interactive UI</text>
    <text x="84" y="190" fill="#64748B" font-size="11">Live forensic cockpit, controls &amp; presets</text>
    <text x="84" y="206" fill="#0284C7" font-size="10" font-weight="600">forgeguard.streamlit.app</text>
    <rect x="24" y="238" width="312" height="74" rx="8" fill="#FFFFFF" stroke="#CBD5E1" stroke-width="1" filter="url(#card-shadow)" />
    <rect x="36" y="250" width="36" height="36" rx="6" fill="#0EA5E9" />
    <rect x="43" y="258" width="9" height="20" rx="2" fill="#E0F2FE" />
    <rect x="56" y="258" width="9" height="20" rx="2" fill="#E0F2FE" />
    <text x="84" y="266" fill="#0F172A" font-size="13" font-weight="700">Tri-Spectral Exhibit Viewer</text>
    <text x="84" y="284" fill="#64748B" font-size="11">Original &#8226; ELA Matrix &#8226; Tamper Heatmap</text>
    <text x="84" y="300" fill="#64748B" font-size="10">Pixel-synchronized multi-spectral audit</text>
    <rect x="24" y="332" width="312" height="74" rx="8" fill="#FFFFFF" stroke="#CBD5E1" stroke-width="1" filter="url(#card-shadow)" />
    <rect x="36" y="344" width="36" height="36" rx="6" fill="#6366F1" />
    <path d="M 44 368 L 50 360 L 56 364 L 64 354" stroke="#FFFFFF" stroke-width="1.8" fill="none" stroke-linecap="round" />
    <text x="84" y="360" fill="#0F172A" font-size="13" font-weight="700">Model Benchmark Suite</text>
    <text x="84" y="378" fill="#64748B" font-size="11">Comparative evaluation, latency &amp; matrices</text>
    <text x="84" y="394" fill="#6366F1" font-size="10" font-weight="600">Empirical metrics (N = 777 receipts)</text>
    <line x1="180" y1="124" x2="180" y2="144" stroke="#94A3B8" stroke-width="1.5" marker-end="url(#arrow)" />
  </g>
  <!-- 2. PREPROCESSING LAYER -->
  <g transform="translate(410, 92)">
    <rect width="440" height="424" rx="10" fill="#F0FDF4" stroke="#BBF7D0" stroke-width="1.5" filter="url(#shadow)" />
    <rect x="14" y="14" width="412" height="32" rx="6" fill="#DCFCE7" stroke="#86EFAC" stroke-width="1" />
    <text x="24" y="35" fill="#15803D" font-size="12" font-weight="700">2. FORENSIC PREPROCESSING LAYER (Pillow, OpenCV, NumPy)</text>
    <rect x="24" y="58" width="392" height="66" rx="8" fill="#FFFFFF" stroke="#CBD5E1" stroke-width="1" filter="url(#card-shadow)" />
    <text x="40" y="82" fill="#0F172A" font-size="13" font-weight="700">Image Ingestion &amp; Verification</text>
    <text x="40" y="99" fill="#64748B" font-size="11">RGB conversion, dimension validation &amp; integrity check</text>
    <text x="40" y="115" fill="#16A34A" font-size="10" font-weight="600">Input Formats: PNG, JPEG, WEBP (Max 200 MB)</text>
    <rect x="24" y="142" width="392" height="114" rx="8" fill="#FFFFFF" stroke="#86EFAC" stroke-width="1.5" filter="url(#card-shadow)" />
    <rect x="36" y="152" width="64" height="20" rx="4" fill="#DCFCE7" />
    <text x="68" y="166" fill="#15803D" font-size="10" font-weight="700" text-anchor="middle">CORE ELA</text>
    <text x="110" y="167" fill="#0F172A" font-size="13" font-weight="700">Error Level Analysis (ELA) Engine</text>
    <text x="36" y="190" fill="#334155" font-size="11">1. Re-saves receipt at known JPEG quality (<tspan font-weight="700" fill="#15803D">Q = 90</tspan>)</text>
    <text x="36" y="208" fill="#334155" font-size="11">2. Computes absolute difference: <tspan font-weight="600" font-family="monospace">|Orig - Resaved|</tspan></text>
    <text x="36" y="226" fill="#334155" font-size="11">3. Amplifies error gradient by scale factor (<tspan font-weight="700" fill="#15803D">15.0&#215;</tspan>)</text>
    <text x="36" y="244" fill="#64748B" font-size="10">Isolates spliced elements as anomalous bright pixel clusters</text>
    <rect x="24" y="274" width="188" height="132" rx="8" fill="#FFFFFF" stroke="#CBD5E1" stroke-width="1" filter="url(#card-shadow)" />
    <text x="36" y="296" fill="#0F172A" font-size="12" font-weight="700">Standardized ELA Tensor</text>
    <text x="36" y="316" fill="#475569" font-size="11">Dimensions: <tspan font-weight="700" fill="#0F172A">128 &#215; 128 &#215; 3</tspan></text>
    <text x="36" y="334" fill="#475569" font-size="11">Normalized: <tspan font-family="monospace" font-weight="600">[0.0, 1.0]</tspan></text>
    <text x="36" y="354" fill="#64748B" font-size="10">Uniform floating-point matrix</text>
    <text x="36" y="370" fill="#15803D" font-size="10" font-weight="600">Feed to CNN models</text>
    <rect x="228" y="274" width="188" height="132" rx="8" fill="#FFFFFF" stroke="#CBD5E1" stroke-width="1" filter="url(#card-shadow)" />
    <text x="240" y="296" fill="#0F172A" font-size="12" font-weight="700">Tamper Heatmap &amp; ROI</text>
    <text x="240" y="316" fill="#475569" font-size="11">Colormap: <tspan font-weight="600">COLORMAP_JET</tspan></text>
    <text x="240" y="334" fill="#475569" font-size="11">Filter: <tspan font-weight="600">Gaussian Smoothing</tspan></text>
    <text x="240" y="354" fill="#64748B" font-size="10">Bounding box localization on</text>
    <text x="240" y="370" fill="#15803D" font-size="10" font-weight="600">spliced amount / ref numbers</text>
    <line x1="220" y1="124" x2="220" y2="142" stroke="#94A3B8" stroke-width="1.5" marker-end="url(#arrow)" />
    <path d="M 160 256 L 160 265 L 118 265 L 118 274" stroke="#94A3B8" stroke-width="1.5" fill="none" marker-end="url(#arrow)" />
    <path d="M 280 256 L 280 265 L 322 265 L 322 274" stroke="#94A3B8" stroke-width="1.5" fill="none" marker-end="url(#arrow)" />
  </g>
  <!-- Presentation to Preprocessing Arrow -->
  <path d="M 336 210 L 434 210" stroke="#0284C7" stroke-width="2" fill="none" marker-end="url(#arrow-blue)" />
  <rect x="344" y="196" width="84" height="20" rx="4" fill="#FFFFFF" stroke="#BAE6FD" />
  <text x="386" y="210" fill="#0284C7" font-size="10" font-weight="700" text-anchor="middle">Receipt Image</text>
  <!-- 3. CNN BENCHMARK LAYER -->
  <g transform="translate(870, 92)">
    <rect width="440" height="424" rx="10" fill="#F5F3FF" stroke="#DDD6FE" stroke-width="1.5" filter="url(#shadow)" />
    <rect x="14" y="14" width="412" height="32" rx="6" fill="#EDE9FE" stroke="#C4B5FD" stroke-width="1" />
    <text x="24" y="35" fill="#6D28D9" font-size="12" font-weight="700">3. DEEP LEARNING COMPARATIVE CNN LAYER (TensorFlow)</text>
    <rect x="24" y="58" width="392" height="66" rx="8" fill="#FFFFFF" stroke="#CBD5E1" stroke-width="1" filter="url(#card-shadow)" />
    <rect x="36" y="68" width="6" height="46" rx="3" fill="#6366F1" />
    <text x="52" y="80" fill="#0F172A" font-size="13" font-weight="700">Basic CNN (Custom 4-Layer Baseline)</text>
    <text x="52" y="98" fill="#64748B" font-size="11">Parameters: <tspan font-weight="600">~2.1M</tspan> &#8226; Conv2D + MaxPool + Dense</text>
    <text x="52" y="114" fill="#4F46E5" font-size="10" font-weight="700">Test Split: 100.0% Acc &#8226; 8.61 ms Latency &#8226; Fast Reference</text>
    <rect x="24" y="136" width="392" height="74" rx="8" fill="#FFFFFF" stroke="#8B5CF6" stroke-width="1.5" filter="url(#card-shadow)" />
    <rect x="36" y="146" width="6" height="54" rx="3" fill="#8B5CF6" />
    <rect x="286" y="144" width="118" height="18" rx="4" fill="#EDE9FE" />
    <text x="345" y="157" fill="#6D28D9" font-size="9" font-weight="700" text-anchor="middle">SOP-5 SELECTED</text>
    <text x="52" y="158" fill="#0F172A" font-size="13" font-weight="700">MobileNetV2 Architecture</text>
    <text x="52" y="176" fill="#64748B" font-size="11">Parameters: <tspan font-weight="600">~3.4M</tspan> &#8226; Inverted Residual Depthwise Convolutions</text>
    <text x="52" y="194" fill="#7C3AED" font-size="10" font-weight="700">Optimal Mobile Efficiency: 95.74% Acc &#8226; 28.04 ms Latency</text>
    <rect x="24" y="222" width="392" height="66" rx="8" fill="#FFFFFF" stroke="#CBD5E1" stroke-width="1" filter="url(#card-shadow)" />
    <rect x="36" y="232" width="6" height="46" rx="3" fill="#A855F7" />
    <text x="52" y="244" fill="#0F172A" font-size="13" font-weight="700">ResNet50 (Deep Residual Architecture)</text>
    <text x="52" y="262" fill="#64748B" font-size="11">Parameters: <tspan font-weight="600">~23.5M</tspan> &#8226; 50 Layers with Skip Connections</text>
    <text x="52" y="278" fill="#9333EA" font-size="10" font-weight="700">Heavy Footprint: 75.53% Acc &#8226; 109.34 ms Latency</text>
    <rect x="24" y="300" width="392" height="106" rx="8" fill="#FFFFFF" stroke="#DDD6FE" stroke-width="1.2" filter="url(#card-shadow)" />
    <text x="38" y="324" fill="#0F172A" font-size="13" font-weight="700">Consensus &amp; Decision Voting Engine</text>
    <text x="38" y="344" fill="#475569" font-size="11">&#8226; Multi-model agreement verification (<tspan font-weight="700" fill="#6D28D9">3/3 or 2/3 Consensus</tspan>)</text>
    <text x="38" y="362" fill="#475569" font-size="11">&#8226; Soft-voting confidence aggregation (Classification Threshold = 0.50)</text>
    <text x="38" y="380" fill="#475569" font-size="11">&#8226; Multimodal Gemini 2.0 Flash XAI optical font &amp; checksum verification</text>
  </g>
  <!-- Preprocessing Tensor to CNN Arrow -->
  <path d="M 622 340 L 870 340" stroke="#7C3AED" stroke-width="2" fill="none" marker-end="url(#arrow-purple)" />
  <rect x="696" y="326" width="118" height="20" rx="4" fill="#FFFFFF" stroke="#DDD6FE" />
  <text x="755" y="340" fill="#7C3AED" font-size="10" font-weight="700" text-anchor="middle">128x128x3 Tensor</text>
  <!-- 4. DATA & STORAGE LAYER -->
  <g transform="translate(30, 544)">
    <rect width="600" height="310" rx="10" fill="#FFFBEB" stroke="#FDE68A" stroke-width="1.5" filter="url(#shadow)" />
    <rect x="14" y="14" width="572" height="32" rx="6" fill="#FEF3C7" stroke="#FCD34D" stroke-width="1" />
    <text x="24" y="35" fill="#B45309" font-size="12" font-weight="700">4. DATA &amp; MODEL REPOSITORY LAYER (Storage &amp; Training Pipeline)</text>
    <rect x="24" y="58" width="268" height="110" rx="8" fill="#FFFFFF" stroke="#CBD5E1" stroke-width="1" filter="url(#card-shadow)" />
    <text x="36" y="80" fill="#0F172A" font-size="13" font-weight="700">GCash Empirical Dataset (v2.2)</text>
    <text x="36" y="98" fill="#15803D" font-size="11" font-weight="600">&#8226; 153 Authentic GCash Receipts</text>
    <text x="36" y="116" fill="#DC2626" font-size="11" font-weight="600">&#8226; 624 Forged Receipts (4 Vectors)</text>
    <text x="36" y="134" fill="#64748B" font-size="10">Amount splice, ref clone, font, AI synth</text>
    <text x="36" y="152" fill="#B45309" font-size="10" font-weight="600">Total: 777 Samples &#8226; metadata.json</text>
    <rect x="308" y="58" width="278" height="110" rx="8" fill="#FFFFFF" stroke="#CBD5E1" stroke-width="1" filter="url(#card-shadow)" />
    <text x="320" y="80" fill="#0F172A" font-size="13" font-weight="700">Google Colab GPU Pipeline</text>
    <text x="320" y="98" fill="#475569" font-size="11">&#8226; NVIDIA T4 GPU Cloud Acceleration</text>
    <text x="320" y="116" fill="#475569" font-size="11">&#8226; 80/20 Stratified Train-Test Split</text>
    <text x="320" y="134" fill="#475569" font-size="11">&#8226; Adam Optimizer &#8226; Binary Crossentropy</text>
    <text x="320" y="152" fill="#B45309" font-size="10" font-weight="600">ForgeGuard_Model_Training.ipynb</text>
    <rect x="24" y="182" width="268" height="108" rx="8" fill="#FFFFFF" stroke="#CBD5E1" stroke-width="1" filter="url(#card-shadow)" />
    <text x="36" y="204" fill="#0F172A" font-size="13" font-weight="700">Trained Weights (.keras)</text>
    <text x="36" y="224" fill="#475569" font-size="11">&#8226; <tspan font-family="monospace">basic_cnn.keras</tspan> (2.1M params)</text>
    <text x="36" y="242" fill="#475569" font-size="11">&#8226; <tspan font-family="monospace">mobilenetv2.keras</tspan> (3.4M params)</text>
    <text x="36" y="260" fill="#475569" font-size="11">&#8226; <tspan font-family="monospace">resnet50.keras</tspan> (23.5M params)</text>
    <rect x="308" y="182" width="278" height="108" rx="8" fill="#FFFFFF" stroke="#CBD5E1" stroke-width="1" filter="url(#card-shadow)" />
    <text x="320" y="204" fill="#0F172A" font-size="13" font-weight="700">Evaluation Metrics Registry</text>
    <text x="320" y="224" fill="#475569" font-size="11">&#8226; <tspan font-family="monospace">evaluation_metrics.json</tspan></text>
    <text x="320" y="242" fill="#475569" font-size="11">&#8226; Confusion matrix: TP, TN, FP, FN</text>
    <text x="320" y="260" fill="#475569" font-size="11">&#8226; Precision, Recall, F1 &amp; ROC-AUC</text>
  </g>
  <!-- 5. OUTPUT & DECISION LAYER -->
  <g transform="translate(650, 544)">
    <rect width="660" height="310" rx="10" fill="#F0FDFA" stroke="#99F6E4" stroke-width="1.5" filter="url(#shadow)" />
    <rect x="14" y="14" width="632" height="32" rx="6" fill="#CCFBF1" stroke="#5EEAD4" stroke-width="1" />
    <text x="24" y="35" fill="#0F766E" font-size="12" font-weight="700">5. RESULTS &amp; FORENSIC DECISION LAYER (Real-Time Outputs)</text>
    <rect x="24" y="58" width="298" height="110" rx="8" fill="#FFFFFF" stroke="#CBD5E1" stroke-width="1" filter="url(#card-shadow)" />
    <rect x="36" y="68" width="80" height="20" rx="4" fill="#FEE2E2" />
    <text x="76" y="82" fill="#DC2626" font-size="10" font-weight="700" text-anchor="middle">VERDICT</text>
    <text x="124" y="83" fill="#0F172A" font-size="13" font-weight="700">Authenticity Result</text>
    <text x="36" y="108" fill="#15803D" font-size="11" font-weight="600">&#8226; AUTHENTIC VERIFIED (Pass)</text>
    <text x="36" y="126" fill="#DC2626" font-size="11" font-weight="600">&#8226; FORGED / SPLICED DETECTED (Alert)</text>
    <text x="36" y="144" fill="#64748B" font-size="10">High-contrast visual stamp for merchants</text>
    <rect x="338" y="58" width="298" height="110" rx="8" fill="#FFFFFF" stroke="#CBD5E1" stroke-width="1" filter="url(#card-shadow)" />
    <text x="350" y="80" fill="#0F172A" font-size="13" font-weight="700">Tri-Model Telemetry</text>
    <text x="350" y="102" fill="#475569" font-size="11">&#8226; Basic CNN: <tspan font-weight="700">Confidence % &#8226; 8.6ms</tspan></text>
    <text x="350" y="120" fill="#475569" font-size="11">&#8226; MobileNetV2: <tspan font-weight="700">Confidence % &#8226; 28.0ms</tspan></text>
    <text x="350" y="138" fill="#475569" font-size="11">&#8226; ResNet50: <tspan font-weight="700">Confidence % &#8226; 109.3ms</tspan></text>
    <text x="350" y="154" fill="#0F766E" font-size="10" font-weight="600">Comparative side-by-side readouts</text>
    <rect x="24" y="182" width="298" height="108" rx="8" fill="#FFFFFF" stroke="#CBD5E1" stroke-width="1" filter="url(#card-shadow)" />
    <text x="36" y="204" fill="#0F172A" font-size="13" font-weight="700">Localized Tamper Heatmap</text>
    <text x="36" y="224" fill="#475569" font-size="11">&#8226; 42% opacity COLORMAP_JET overlay</text>
    <text x="36" y="242" fill="#475569" font-size="11">&#8226; Bounding box around altered amount/text</text>
    <text x="36" y="260" fill="#0F766E" font-size="10" font-weight="600">Spatial localization of altered pixel clusters</text>
    <rect x="338" y="182" width="298" height="108" rx="8" fill="#FFFFFF" stroke="#CBD5E1" stroke-width="1" filter="url(#card-shadow)" />
    <text x="350" y="204" fill="#0F172A" font-size="13" font-weight="700">Explainable AI (XAI) Audit</text>
    <text x="350" y="224" fill="#475569" font-size="11">&#8226; Typography baseline &amp; kerning inspection</text>
    <text x="350" y="242" fill="#475569" font-size="11">&#8226; 13-digit reference checksum validation</text>
    <text x="350" y="260" fill="#0F766E" font-size="10" font-weight="600">Human-interpretable forensic validation</text>
  </g>
  <!-- Flow Arrows -->
  <path d="M 1090 516 L 1090 544" stroke="#0D9488" stroke-width="2" fill="none" marker-end="url(#arrow)" />
  <path d="M 630 650 L 640 650 L 640 530 L 890 530 L 890 516" stroke="#D97706" stroke-width="1.8" stroke-dasharray="4 4" fill="none" marker-end="url(#arrow-amber)" />
  <path d="M 528 406 L 528 528 L 780 528 L 780 544" stroke="#059669" stroke-width="1.8" fill="none" marker-end="url(#arrow-emerald)" />
  <path d="M 650 560 L 380 560 L 380 516" stroke="#0284C7" stroke-width="1.8" stroke-dasharray="4 4" fill="none" marker-end="url(#arrow-blue)" />
  <rect x="420" y="550" width="168" height="20" rx="4" fill="#FFFFFF" stroke="#BAE6FD" />
  <text x="504" y="564" fill="#0284C7" font-size="10" font-weight="700" text-anchor="middle">Render Exhibits in UI</text>
</svg>